PathFileType	4	(X/Y/Z)	Kaydara	
DataRate	CameraRate	NumFrames	NumMarkers	Units	OrigDataRate	OrigDataStartFrame	OrigNumFrames	
240.00	240.00	4	72	mm	240.00	311	355	
Frame#	Time	Hips			RightUpLeg			RightLeg			RightFoot			RightFoot_End			LeftUpLeg			LeftLeg			LeftFoot			LeftFoot_End			Spine			Spine1			Spine2			Spine3			Neck			Head			Head_End			RightShoulder			RightArm			RightForeArm			RightHand			RightHandThumb1			RightHandThumb2			RightHandThumb3			RightHandThumb3_End			RightInHandIndex			RightHandIndex1			RightHandIndex2			RightHandIndex3			RightHandIndex3_End			RightInHandMiddle			RightHandMiddle1			RightHandMiddle2			RightHandMiddle3			RightHandMiddle3_End			RightInHandRing			RightHandRing1			RightHandRing2			RightHandRing3			RightHandRing3_End			RightInHandPinky			RightHandPinky1			RightHandPinky2			RightHandPinky3			RightHandPinky3_End			LeftShoulder			LeftArm			LeftForeArm			LeftHand			LeftHandThumb1			LeftHandThumb2			LeftHandThumb3			LeftHandThumb3_End			LeftInHandIndex			LeftHandIndex1			LeftHandIndex2			LeftHandIndex3			LeftHandIndex3_End			LeftInHandMiddle			LeftHandMiddle1			LeftHandMiddle2			LeftHandMiddle3			LeftHandMiddle3_End			LeftInHandRing			LeftHandRing1			LeftHandRing2			LeftHandRing3			LeftHandRing3_End			LeftInHandPinky			LeftHandPinky1			LeftHandPinky2			LeftHandPinky3			LeftHandPinky3_End			
		X1	Y1	Z1	X2	Y2	Z2	X3	Y3	Z3	X4	Y4	Z4	X5	Y5	Z5	X6	Y6	Z6	X7	Y7	Z7	X8	Y8	Z8	X9	Y9	Z9	X10	Y10	Z10	X11	Y11	Z11	X12	Y12	Z12	X13	Y13	Z13	X14	Y14	Z14	X15	Y15	Z15	X16	Y16	Z16	X17	Y17	Z17	X18	Y18	Z18	X19	Y19	Z19	X20	Y20	Z20	X21	Y21	Z21	X22	Y22	Z22	X23	Y23	Z23	X24	Y24	Z24	X25	Y25	Z25	X26	Y26	Z26	X27	Y27	Z27	X28	Y28	Z28	X29	Y29	Z29	X30	Y30	Z30	X31	Y31	Z31	X32	Y32	Z32	X33	Y33	Z33	X34	Y34	Z34	X35	Y35	Z35	X36	Y36	Z36	X37	Y37	Z37	X38	Y38	Z38	X39	Y39	Z39	X40	Y40	Z40	X41	Y41	Z41	X42	Y42	Z42	X43	Y43	Z43	X44	Y44	Z44	X45	Y45	Z45	X46	Y46	Z46	X47	Y47	Z47	X48	Y48	Z48	X49	Y49	Z49	X50	Y50	Z50	X51	Y51	Z51	X52	Y52	Z52	X53	Y53	Z53	X54	Y54	Z54	X55	Y55	Z55	X56	Y56	Z56	X57	Y57	Z57	X58	Y58	Z58	X59	Y59	Z59	X60	Y60	Z60	X61	Y61	Z61	X62	Y62	Z62	X63	Y63	Z63	X64	Y64	Z64	X65	Y65	Z65	X66	Y66	Z66	X67	Y67	Z67	X68	Y68	Z68	X69	Y69	Z69	X70	Y70	Z70	X71	Y71	Z71	X72	Y72	Z72	

311	1.292	3921.0129	906.651	56.2195	3917.4836162488346	858.3144382455364	-21.344571561441246	3852.156054749821	447.6531494904622	-67.69110100236873	3962.631074831814	95.52958745180447	-194.82687819170098	3890.8171220097975	14.527523814043098	-37.30201495956504	3930.5591429386955	926.0488789517451	146.02540305502367	3880.1083241342753	526.3917029720718	260.01951697527824	3782.2433610648377	96.70886150511264	290.1650971761074	3666.298991867169	3.965971440996702	169.91466013770273	3893.752652265229	1036.9528613148245	3.9467232461023536	3843.2596240146795	1110.5929134626617	-34.29551806649224	3784.3378716498864	1182.6519743910794	-73.30003365858515	3718.7132626338002	1243.7088446046396	-109.07920307137235	3647.9070201938043	1308.474500828056	-146.6472446048256	3583.078093708595	1367.9280239881316	-179.5030535689959	3457.5218985830593	1460.6774121832498	-209.12139140530746	3666.323723618136	1269.1308372937403	-153.67462702244296	3633.869342458815	1205.8376118609735	-198.04366611995601	3647.4483208486627	1078.493460388045	-54.48971953262333	3599.934480969426	1054.16360904753	20.246487656521506	3612.046408063435	1076.0257410487077	9.801114756510621	3614.7260528539764	1075.8032659875446	13.528484482345627	3614.906717286174	1072.7388823280987	18.557233003325592	3613.615480940253	1067.6952755120858	24.83085490112201	3607.6986511303826	1069.2203201779196	16.794618624302473	3610.788694021211	1074.4303606711012	23.877801645495815	3609.8257997119777	1069.411460344023	32.9190745577936	3608.65145509014	1063.511919356965	38.26562526125399	3607.29111749789	1056.7541480234554	42.5058707831106	3602.858999079069	1060.7148557370447	23.36092323836058	3603.25605257072	1061.1984232873626	33.82018989783513	3601.5528482272903	1054.571832792011	44.534588422695556	3599.822931807959	1046.9024063114257	51.39220928210122	3598.182258240153	1039.2399014376213	56.22975973552852	3599.3821426550967	1054.6425821040748	27.794826037644945	3596.781864311201	1050.0089863857324	40.9458639725091	3594.629572432258	1043.0563015289033	51.135684132294024	3592.6063053327093	1035.033508043018	58.2023913237041	3590.8956057767696	1027.532639326488	62.96509627795786	3595.118272438778	1046.9432071155868	32.892461713699305	3590.1768233423313	1038.1825402294248	48.0174662391506	3587.4227266219978	1030.7986401503504	57.44775866635787	3585.448397518758	1024.0681073123599	63.2169078305406	3583.6460795063804	1016.917867943995	67.78963360115003	3677.390516945129	1305.911787132204	-114.13583913788861	3716.6491125212983	1350.7881144415956	-30.28477581375745	3757.1172052612797	1133.0411988092246	-12.558342679006367	3664.2515225486077	993.508739346908	50.07413992627159	3659.787823598909	1014.2832728727764	50.879591255242026	3663.0178870324407	1012.7001903867165	57.13034371350209	3667.2250247400075	1007.9036040316008	62.024940015576455	3672.40711516807	1000.7446716907689	66.56865698818443	3666.229118916892	1004.291487598554	52.5459182721371	3677.236537570243	1001.2448098981845	59.84380831136304	3685.78904290922	991.9422085962318	66.78646289293378	3689.147111359298	985.4619553077691	71.11843404657984	3690.6051647128706	979.6282136445552	74.7146114486208	3671.2131041214097	994.008714569088	53.85350265829723	3684.6449926833557	985.4771632972465	61.678388169123515	3694.6005133320828	973.9702994602627	69.40539285931101	3698.950870520731	965.501462798195	74.70430868342316	3700.691582252057	958.8019886445032	78.67444740074944	3674.459323649863	986.8698530822115	54.57714494469182	3689.3322680640636	973.1677813410575	62.177208347544884	3698.6251108315428	961.7654225213744	69.05444988061235	3703.1482767941925	952.8674506197957	74.24127005755435	3704.9398924512243	946.2227480219636	78.01002467060135	3677.835184411783	978.3506876235201	55.30952968011335	3693.5812101417487	960.6918644342969	62.687372644201375	3701.918032054178	949.4787463308107	68.38346008263926	3705.650411538434	941.9811350352743	72.2581956895938	3707.486781548263	935.5152442648515	75.64932945604984
312	1.296	3921.0129	906.651	56.2195	3917.1437700813444	858.1753256888054	-21.43740221441492	3851.951701402552	447.4691018430253	-67.61898465502966	3962.866851270152	95.46603607306258	-194.9547001563749	3891.071412462666	14.43705301666624	-37.43462430634766	3930.8876054152843	926.1877240195422	146.12399278674621	3880.568829325625	526.5490917197442	260.2416126630192	3782.415085717349	96.88580893416008	290.1884743862881	3666.5641439317974	4.056695885863619	169.90635506384282	3893.812262821966	1036.9588130579953	3.925677827648515	3843.300565287419	1110.6230827746317	-34.25410503910326	3784.3521966287212	1182.7153592822112	-73.17168575539449	3718.6913316361033	1243.8195842050766	-108.83082035584057	3647.8456863771576	1308.6315601291715	-146.27336116253116	3582.985625995551	1368.1292710084756	-179.01472338615835	3457.3866900031026	1460.8449349226717	-208.5709888085674	3666.138411394933	1269.1822352888994	-153.33364648180145	3633.168150451299	1205.6118039120186	-197.29343620256122	3646.6446915797405	1078.9616357211228	-52.8794794748891	3598.7249441077447	1055.3645054933183	23.213259054545762	3610.8515919461006	1077.3265588989225	12.706372483979589	3613.5238769239277	1077.1555223023647	16.533499013384585	3613.6950203935608	1074.129645288166	21.667749888866172	3612.3920868583027	1069.1204369860006	28.060149017362956	3606.490383169291	1070.5476905972425	19.818681924257195	3609.561931589635	1075.9273676668881	27.143487216823083	3608.5810721994494	1070.9850664009432	36.37808643203298	3607.39777799396	1065.0950437803908	41.8105495729582	3606.031529518724	1058.3194491134675	46.09878306962668	3601.6391779443225	1062.0416539945859	26.475773559423544	3602.011944843568	1062.690382724845	37.21981110941466	3600.287666279913	1056.146699390378	48.15639394501524	3598.5462468418095	1048.4884309889007	55.123052342675166	3596.8987624244296	1040.806266062695	60.01572942188442	3598.1546506445125	1055.9651193769134	30.96767949109618	3595.5260039818345	1051.477223996507	44.42436172767327	3593.3538786547547	1044.5958431740023	54.818864480571555	3591.3187376333394	1036.5833040772961	61.99660229185075	3589.601265528357	1029.0637085909989	66.81391461833819	3593.8823228641313	1048.2521992354586	36.12494690327558	3588.9096993259072	1039.6184563293818	51.56722103237342	3586.137558053524	1032.2895206725598	61.177284394056386	3584.1535221754543	1025.565435053166	67.03509596506092	3582.344602813866	1018.3980129655114	71.66061240929464	3677.486800989689	1306.1462006078889	-113.81716488142452	3717.2916016226864	1351.583070245099	-30.081337124335338	3757.496635542769	1133.4801314674246	-11.557613169488686	3663.14457166788	994.1378986588393	52.25832400041235	3658.7672386357417	1015.0754721006631	53.18395877387973	3662.126416822943	1013.6193077803177	59.650877185778135	3666.444101494212	1008.8988879315308	64.70783308453328	3671.7359993911	1001.7929988978599	69.39701586814094	3665.2950222169006	1005.0571349691772	54.900294201836665	3676.6231867351366	1002.1637980822773	62.51685194697651	3685.3742945295867	992.9556597906129	69.69941409359988	3688.800633468947	986.5254671006538	74.15613853799151	3690.277959892031	980.7273141034476	77.83911756476871	3670.3227880256954	994.7352075930075	56.229803339039606	3684.091210245165	986.3320454618604	64.37736201174027	3694.268151477865	974.9225807994511	72.36803517422354	3698.7031323768215	966.5114150958533	77.81836427755077	3700.4660296879947	959.8495565614514	81.88391884049653	3673.5922020787266	987.5648457883998	56.96076003148493	3688.788194919807	973.9507111398061	64.85622481616191	3698.2783028035237	962.6272376191387	71.9646968085847	3702.885364730834	953.7817038591515	77.2983186099196	3704.6989162153445	947.1708575495236	81.1571442611495	3676.9819702489394	979.0043410049689	57.6926861531112	3693.0344761452743	961.4009890855091	65.34114372729094	3701.5345169786806	950.2412828584434	71.22331186640447	3705.330633385032	942.777200062639	75.20557091150452	3707.1878981355735	936.3385845215073	78.67674915582703
313	1.3	3921.0129	906.651	56.2195	3916.797545446405	858.0377638449305	-21.527357542620514	3851.724733160206	447.2897021348409	-67.54490274904363	3963.0830485412635	95.41242091676631	-195.09172336057588	3891.305687773454	14.355264405258245	-37.577302106892056	3931.22239496461	926.3249583335751	146.21953462085028	3881.0279485985825	526.7066536003329	260.4630523037235	3782.5844385196983	97.06394472086807	290.21454182431654	3666.827164281489	4.149392280938836	169.9000075161083	3893.8723053599238	1036.9650079326368	3.9053517006691183	3843.345206574481	1110.6515187031855	-34.22006585788053	3784.373346764491	1182.7737310496977	-73.06171021967936	3718.6783733933225	1243.9198420342168	-108.61513168151752	3647.7956362148093	1308.772619925179	-145.94720034609222	3582.9057919593006	1368.3089940125105	-178.58780111610054	3457.266359201588	1460.9908334901138	-208.09157042803304	3665.970020982507	1269.2191573135133	-153.03808426204043	3632.4486347240445	1205.3357902041312	-196.56439183780415	3645.8060158168387	1079.4961091810812	-51.20617934665725	3597.6530562759826	1056.6751684807402	26.33108540796343	3609.779905192153	1078.7277227679454	15.776016390758087	3612.4585274265323	1078.618535278153	19.720933990355604	3612.635313954495	1075.6400005114388	24.971638053373272	3611.33813722243	1070.6739130248925	31.49056789389385	3605.4229407726334	1071.9785911335202	23.001773240723814	3608.506640715078	1077.531338861798	30.577956335695696	3607.5352175874746	1072.676762844561	40.017030523176985	3606.356383339993	1066.806413112485	45.545283407949455	3604.992877121963	1060.023583639773	49.89166759222721	3600.574704703795	1063.4765906440573	29.7451454830479	3600.9609296355716	1064.2963202294782	40.78103041745704	3599.247301572545	1057.8482927624975	51.95134217172617	3597.5114325837058	1050.2137251405727	59.038656759848024	3595.8670310611515	1042.5236278196385	63.99743551384279	3597.0919656666288	1057.3988855547789	34.291568941315184	3594.476933700408	1053.0643795649246	48.05705708868919	3592.314431689285	1046.2660275002015	58.66565969143829	3590.284824923747	1038.2761667436723	65.96529265895454	3588.5703372565913	1030.7490255867485	70.84736926467875	3592.8213429611424	1049.6764944742874	39.5045844014006	3587.862263410059	1041.1789801912025	55.26445952240945	3585.0982992125123	1033.9153209446924	65.06081493295716	3583.1185281980765	1027.207191227762	71.01472021929244	3581.312383742023	1020.032748187763	75.70174083890313	3677.5870005460542	1306.3668392052043	-113.53824139505066	3717.935810913934	1352.3506486280924	-29.913709258143545	3757.920548016728	1133.8854294548826	-10.662447358494685	3662.14374245751	994.7679996331324	54.37629817370179	3657.838846183595	1015.8510763006051	55.416878447872314	3661.306950601569	1014.5206247005854	62.08314166388401	3665.7224871758726	1009.8789103380306	67.28782896461655	3671.114776202506	1002.8310713774554	72.10778984866818	3664.4576074743923	1005.8159079790263	57.17234099588363	3676.093351619148	1003.0798807026902	65.07192811687652	3685.0292141039968	993.9731396244622	72.46935636422218	3688.512552874306	987.5965486374215	77.04027278080395	3689.9980284163285	981.8363960713273	80.80468922066798	3669.5330997744636	995.4640751663243	58.517078416117705	3683.6273494218462	987.198174860619	66.94892751120909	3694.0111580411494	975.8948885966626	75.175175725756	3698.517432580157	967.5462480782111	80.76380759765978	3700.290473984108	960.924926920632	84.91872935814746	3672.8288859808513	988.2686266920513	59.25150413822191	3688.3412483982825	974.7558912568287	67.40456440082234	3698.0165228714113	963.5201808641016	74.71905593530337	3702.694934096856	954.7324184008413	80.18644854816874	3704.519246824468	948.1584840575739	84.12947568763143	3676.236181020514	979.674213178842	59.979758864348135	3692.591449151966	962.1431967030225	67.86208398576406	3701.2459639633203	951.0458651074713	73.90917954485617	3705.0971219560925	943.6200975977687	77.98899035651509	3706.9656451682413	937.2119801829493	81.53474490559879
314	1.304	3921.0129	906.651	56.2195	3916.44623366655	857.9019038334434	-21.61488145611557	3851.478733709007	447.1146966897753	-67.46994484179774	3963.2825326890957	95.36759846068017	-195.2372947788731	3891.5229759200733	14.281297733225564	-37.72918006312286	3931.562359982994	926.4604301936022	146.31240722556336	3881.482307441189	526.8640906125481	260.68292743039706	3782.7490728976663	97.24258205942881	290.24140332128485	3667.0850648053506	4.243790067475465	169.8939776323006	3893.9321185227504	1036.9714386826479	3.886042329438395	3843.392352154956	1110.678205946926	-34.19241529037681	3784.399659699933	1182.8271582318887	-72.96824177770192	3718.6724586644696	1244.0099812159935	-108.42918810105749	3647.754663143333	1308.898371763999	-145.6646262415327	3582.8362893034355	1368.4683705966636	-178.2170031892389	3457.1590412601117	1461.1175112060275	-207.67606858334904	3665.815739138602	1269.2420833566603	-152.78379037664445	3631.711257082397	1205.011954130916	-195.856054394686	3644.933659598474	1080.0814776831512	-49.48208785911427	3596.7031666774405	1058.0789019019032	29.579777933895812	3608.8166309183553	1080.2131577190937	18.989451964199198	3611.5137286245767	1080.1744531381235	23.069902744148123	3611.709670303925	1077.250780401667	28.447821457708837	3610.4338427213415	1072.335371980617	35.100889646137574	3604.4797316783365	1073.4969516950782	26.32329734502427	3607.602389991866	1079.2258781024336	34.16010546657574	3606.664763323247	1074.468703356506	43.814524300307674	3605.502464310986	1068.6266972066364	49.44833979451798	3604.149624471716	1061.84560054883	53.86299747760693	3599.6475627644686	1065.0033354847496	33.14850333609258	3600.080475444904	1065.9994472126568	44.48284854630119	3598.4057281538935	1059.6582071141727	55.89813899237144	3596.690768917052	1052.058076108765	63.11760702371305	3595.058505318618	1044.3699923554148	68.15342107632134	3596.1751620888754	1058.9273868357384	37.7460129966809	3593.6108903713325	1054.7534411024742	51.82309805160831	3591.484249952019	1048.0483979955352	62.654971331527136	3589.475859757318	1040.0918780814602	70.08725250625727	3587.773281439912	1032.5666883285276	75.0442140086514	3591.915476222339	1051.199326611576	43.01097615174446	3587.0096446869443	1042.8467420227596	59.08849236652003	3584.2772536095526	1035.6574620584302	69.07748169331093	3582.3143401045472	1028.973486791043	75.13483941727455	3580.5195405870077	1021.800678198554	79.89205062071598	3677.689721734056	1306.5743822407549	-113.29577435747822	3718.5805370099956	1353.091971230556	-29.77792351579282	3758.3979564719316	1134.267608508865	-9.853195158874485	3661.254367574198	995.4042061509762	56.44552938607038	3657.0081949553396	1016.61690316821	57.596599092626676	3660.5660566723245	1015.4101965676062	64.44650910898596	3665.067491793058	1010.8488906423876	69.78523459875959	3670.5514010476168	1003.863150485478	74.72219602951107	3663.7224897062233	1006.5738503549929	59.38096113531724	3675.653486652378	1003.9985853538012	67.53055195827235	3684.7611983576685	994.9989176243566	75.11944039094148	3688.290957791929	988.6784825411781	79.79457685337717	3689.7741021114507	982.9577871959746	83.63526601366245	3668.8497283292145	996.2005062318487	60.7345463592392	3683.259957818401	988.0797748980372	69.41502241052694	3693.8371163409965	976.8899612180702	77.85056996303999	3698.402192294368	968.6074555828118	83.56512099995587	3700.1740422831826	962.0285224632638	87.8035873076777	3672.1750918847515	988.9858010155637	61.46875569004981	3687.997928909743	975.5865754613143	69.84419125246197	3697.847180522871	964.4460983999469	77.34110510937138	3702.5852059124904	955.7201797808432	82.9299544961188	3704.409770682474	949.1851774743416	86.95153346812265	3675.6035663987063	980.3641961895336	62.190208319366775	3692.2586075857835	962.9207235238415	70.27208829666976	3701.059585864601	951.8934312561921	76.46428477488661	3704.957685172994	944.5097636850592	80.63221519618695	3706.82842179699	938.1344023332699	84.24728228489754
